<?xml version="1.0" encoding="UTF-8"?>
<svg id="Camada_2" data-name="Camada 2" xmlns="http://www.w3.org/2000/svg" viewBox="0 0 394.26 394.27">
  <defs>
    <style>
      .cls-1 {
        fill: #401669;
      }
    </style>
  </defs>
  <g id="Camada_1-2" data-name="Camada 1">
    <g>
      <path class="cls-1" d="M84.87,262.47c-1.68-3.63-2.92-7.43-3.65-11.32-.05-.24-.08-.49-.13-.73-.2-1.15-.35-2.31-.47-3.47-.03-.32-.07-.65-.1-.97-.1-1.34-.16-2.69-.16-4.03,0-.37.03-.74.04-1.11.03-.96.08-1.92.16-2.88.05-.59.12-1.17.19-1.76.09-.73.21-1.46.33-2.18.46-2.72,1.17-5.41,2.11-8.03.04-.11.07-.22.11-.34h.02c2.37-6.51,6.13-12.62,11.39-17.82.1-.1.21-.19.31-.29,0,0,0,0,0,0,.02-.02.04-.03.06-.05.66-.64,1.34-1.26,2.03-1.85.6-.53,1.22-1.03,1.84-1.52.01,0,.03-.02.04-.03,6.17-4.86,13.29-8.02,20.72-9.42.24-.05.49-.08.73-.13,1.15-.2,2.31-.35,3.47-.47.32-.03.65-.07.97-.1.87-.07,1.74-.08,2.62-.1.23,0,.45-.03.68-.03.1,0,.19,0,.29,0,.15,0,.3-.02.45-.02.06,0,.11,0,.17,0,.05,0,.1,0,.15,0,1.3.01,2.59.07,3.88.18.57.05,1.13.14,1.7.21.68.09,1.35.18,2.03.29.81.13,1.61.29,2.42.46.19.04.38.09.57.14,8.44,1.96,16.43,6.16,22.91,12.73.43.44.82.9,1.23,1.35.43.46.85.92,1.26,1.39.17.2.33.39.49.59,3.96,4.76,6.88,10.1,8.76,15.71h.01c.02.07.04.14.06.2.29.87.56,1.74.8,2.62.2.72.36,1.44.52,2.16.13.6.28,1.19.39,1.79.22,1.2.39,2.41.52,3.61.04.39.07.79.1,1.18.09,1.07.14,2.13.15,3.2,0,.35.02.7.02,1.06,0,1.3-.07,2.59-.18,3.88-.05.57-.14,1.13-.2,1.7-.09.68-.18,1.35-.29,2.03-.13.81-.29,1.61-.46,2.42-.04.19-.09.38-.14.57-.79,3.41-1.97,6.75-3.5,9.94-.73,2.92-.61,4.95.91,7.4,1.29,1.95,3.46,4.22,6.79,7.6,8.11,8.22,9.7,9.01,17.24,6.49,3.75-1.5,7.63-2.48,11.57-2.99.36-.05.73-.08,1.09-.12,1-.11,2.01-.2,3.01-.24,1.19-.06,2.39-.06,3.58-.03.23,0,.46.02.69.03,5.76.24,11.48,1.52,16.87,3.82,4.18,1.36,6.55,1.58,9.56-.28,1.95-1.29,4.22-3.46,7.59-6.79,8.9-8.79,9.1-9.91,5.8-19.24-1.58-4.45-2.45-9.09-2.67-13.75-.03-.27-.09-.53-.11-.8-.04-.42-.08-.84-.11-1.27-.09-1.15-.15-2.3-.17-3.45,0-.38-.02-.75-.02-1.13,0-1.39.07-2.79.19-4.18.05-.61.14-1.22.22-1.83.09-.73.19-1.45.31-2.17.14-.87.31-1.74.49-2.6.05-.21.1-.41.15-.61,2.08-9.08,6.55-17.66,13.54-24.63,4.13-4.11,8.78-7.35,13.73-9.76,12.4-6.19,26.62-6.98,39.44-2.33,6.88,2.48,9.73,3.4,13.71.93,2.08-1.39,4.49-3.72,8.08-7.3,9.48-9.44,9.69-10.65,6.16-20.68-6.44-18.32-2.19-39.51,12.39-54.04,2.47-2.46,5.15-4.59,7.97-6.43C337.23,42.26,273.26.83,199.33.01,90.46-1.2,1.22,86.08.01,194.94c-.36,32.33,7.08,62.93,20.58,90,11.52-5.54,24.65-6.22,36.52-1.97,6.46,2.3,9.14,3.16,12.87.85,1.95-1.29,4.22-3.46,7.59-6.79,7.15-7.06,8.68-9.18,7.3-14.57Z"/>
      <path class="cls-1" d="M394.26,197.99c-4.29-.37-8.54-1.24-12.64-2.73-6.88-2.48-9.73-3.4-13.71-.93-2.08,1.39-4.49,3.72-8.08,7.3-9.48,9.44-9.69,10.65-6.16,20.68,6.44,18.32,2.19,39.51-12.39,54.04-7.41,7.38-16.62,12-26.28,13.83-.26.05-.52.09-.78.14-1.23.21-2.46.38-3.69.5-.35.03-.69.08-1.04.11-.57.04-1.14.04-1.71.07-7.08.77-14.27,0-21.06-2.42-6.46-2.3-9.14-3.16-12.87-.85-1.95,1.29-4.22,3.46-7.6,6.79-7.74,7.63-8.9,9.49-6.9,15.96,1.36,3.2,2.36,6.53,3,9.92.05.24.08.49.13.73.2,1.15.35,2.31.47,3.47.03.32.07.65.1.97.03.37.02.73.04,1.1.02.33.02.66.04.98.02.65.08,1.3.08,1.95,0,.17-.01.33-.02.5-.11,12.31-4.94,24.59-14.39,33.91-6.96,6.87-15.61,11.17-24.68,12.88-.24.05-.49.08-.73.13-1.15.2-2.31.35-3.47.47-.32.03-.65.07-.97.1-1.34.1-2.69.16-4.03.16-.1,0-.2,0-.3-.01-.09,0-.18,0-.27,0-1.3-.01-2.59-.07-3.88-.18-.57-.05-1.13-.14-1.7-.21-.68-.09-1.35-.18-2.02-.29-.81-.13-1.62-.29-2.42-.46-.19-.04-.38-.09-.57-.14-8.44-1.96-16.43-6.16-22.91-12.73-3.83-3.88-6.84-8.25-9.08-12.9-2.56-5.18-4.08-10.7-4.65-16.28,0-.08-.03-.16-.03-.24-.01-.13-.02-.25-.03-.38-.09-.98-.15-1.96-.17-2.95-.01-.35-.05-.71-.05-1.06,0-.35-.02-.7-.02-1.05,0-.31.04-.62.04-.93,0-.16.02-.31.02-.46.03-.83.04-1.66.12-2.49.05-.57.14-1.13.21-1.7.08-.68.18-1.35.29-2.02.13-.81.29-1.62.46-2.42.04-.19.09-.38.14-.57.68-2.93,1.65-5.8,2.88-8.58,1.14-3.72,1.21-5.95-.54-8.77-1.29-1.95-3.46-4.22-6.79-7.59-7.71-7.82-9.52-8.92-16.16-6.84-5.48,2.3-11.26,3.55-17.07,3.71-1.06.04-2.11.05-3.17.03-.11,0-.21-.01-.32-.02-6.19-.2-12.35-1.59-18.11-4.17-3.57-1.06-5.76-1.09-8.52.61-1.95,1.29-4.22,3.46-7.6,6.79-8.9,8.79-9.1,9.91-5.8,19.24,5.11,14.42,3,30.74-6.07,43.61,32.04,23.47,71.44,37.51,114.18,37.99,108.87,1.21,198.1-86.06,199.31-194.93,0-.45,0-.89,0-1.33Z"/>
    </g>
  </g>
</svg>
